<svg width="224" height="182" viewBox="0 0 224 182" fill="none" xmlns="http://www.w3.org/2000/svg">
<path d="M96.2666 13.4667C93.8666 14.1333 91.1999 15.8667 90.2666 17.3333C89.1999 19.3333 87.1999 20 83.1999 20C78.9332 20 77.0666 20.8 73.9999 24C71.9999 26.1333 68.2666 28.5334 65.8666 29.3334C63.3333 30.2667 59.4666 33.2 56.9333 36C54.5333 38.8 51.0666 41.8667 49.0666 42.6667C45.3333 44.4 43.0666 48.1334 42.3999 53.2C42.1333 55.4667 40.7999 56.8 37.5999 58C32.1333 59.7334 26.6666 64.8 26.6666 67.8667C26.6666 69.2 24.7999 71.8667 22.5333 74.1334C17.5999 78.8 15.3333 82.9334 14.1333 89.4667C13.5999 92.2667 12.3999 95.2 11.1999 96.1334C9.99992 97.0667 7.86659 100.267 6.39992 103.2C4.26659 107.333 3.86659 109.6 4.66659 113.867C5.19992 116.933 5.86659 121.733 5.99992 124.667C6.13325 127.6 6.39992 131.333 6.53325 132.933C6.53325 134.533 8.26659 137.733 10.3999 140.133C12.3999 142.533 14.6666 145.867 15.3333 147.467C16.9333 151.067 26.7999 161.867 31.0666 164.667C32.7999 165.733 36.7999 166.667 40.1333 166.8C43.3333 166.8 48.6666 166.933 51.8666 167.067C56.7999 167.2 58.2666 166.533 61.4666 162.933L65.1999 158.667L68.5333 162C70.3999 163.867 72.9332 165.333 74.1332 165.333C75.3332 165.333 77.9999 166.8 80.2666 168.667C82.7999 170.8 85.8666 172 88.7999 172C91.3332 172 95.0666 172.8 97.1999 173.867C101.733 176.267 117.467 176.667 129.333 174.8C134.133 174 140.4 173.067 143.333 172.667C153.333 171.2 154.267 170.667 161.333 164C165.2 160.4 169.333 157.333 170.533 157.333C171.733 157.333 175.333 159.2 178.667 161.467C184.4 165.467 185.067 165.6 194.533 164.667C206.267 163.733 209.067 162.4 210.133 157.6C210.533 155.6 212.533 151.733 214.4 148.933C216.533 145.867 217.867 141.867 218 138.267C218.133 135.2 219.067 130.8 220.267 128.667C223.467 122.4 222.4 101.733 218.4 90.8C215.733 83.3334 214.533 81.7334 208.4 77.7334C204.533 75.3334 201.333 72.8 201.333 72.2667C201.333 71.7334 199.467 70.1334 197.2 68.8C194.533 67.2 193.2 65.4667 193.467 63.6C193.467 62 193.6 59.3334 193.467 57.7334C193.333 53.8667 178.667 39.0667 172.667 36.5334C170 35.4667 167.6 33.7334 167.067 32.5334C166.133 30 159.6 26.6667 155.467 26.6667C153.6 26.6667 151.333 25.6 150.4 24.2667C147.2 19.8667 142.133 17.3333 136.667 17.3333C133.6 17.3333 130.4 16.5333 129.467 15.6C128.533 14.6667 124 14 117.6 13.8667C112 13.8667 105.867 13.4667 104 13.0667C102.133 12.5333 98.6666 12.8 96.2666 13.4667ZM108.267 20.1333C110.267 21.2 112.533 21.2 116.933 20C122.4 18.4 123.2 18.5333 126.8 21.2C129.867 23.4667 131.733 23.8667 135.333 23.2C139.6 22.4 140.533 22.9333 144.667 27.2C147.6 30.4 150.4 32 152.933 32.1334C158.4 32.2667 161.2 33.7334 163.067 37.3334C164.133 39.3334 166.267 40.9334 169.067 41.4667C173.867 42.4 178.667 46.1334 178.667 48.8C178.667 49.6 180.8 51.7334 183.467 53.2C188.4 56.1334 188.4 56.1334 187.467 63.3334L186.667 70.4L191.333 72C193.867 72.8 196.933 74.8 198 76.4C199.067 78 202.267 80.5334 204.933 82C208.8 84 210.533 86.1334 212.133 90.6667C213.2 94 214.933 98.2667 215.867 100.267C217.333 102.933 217.333 104.8 216.133 108.133C215.067 111.2 215.067 113.733 216.133 117.467C217.467 121.867 217.333 123.067 214.667 127.333C212.533 130.8 212 133.2 212.533 136.533C213.2 140.133 212.667 141.867 209.333 146C207.2 148.8 205.333 152.4 205.333 154C205.333 157.6 204 158.267 193.733 159.333C186.667 160.133 185.467 160 182 156.933C179.733 155.2 176.667 153.333 175.067 152.8C171.733 151.733 170.267 146.933 171.467 140.533C172.133 136.533 171.733 135.067 168.133 130.667C163.2 124.533 162.933 121.867 166.8 117.867C169.6 114.8 169.6 113.467 166.4 109.067C165.067 107.2 165.067 105.733 166.533 101.867C167.733 98.5334 167.867 96.6667 166.8 95.6C162.933 91.7334 158.4 103.867 161.067 110.933C162.667 115.467 160.933 117.333 155.733 116.4C153.067 115.867 151.733 114.533 150.667 111.2C148.8 105.867 144.8 102.667 139.733 102.667C137.733 102.667 134 101.467 131.467 99.8667C127.733 97.7334 125.467 97.3334 121.467 98C118.267 98.5334 116 98.2667 115.333 97.4667C114.133 95.4667 108.933 95.6 103.733 97.8667C101.333 98.9334 97.0666 100.267 94.2666 100.667C90.3999 101.333 87.3332 103.333 81.1999 109.467C76.6666 114 72.9333 119.067 72.5333 121.2C71.8666 124.133 66.3999 129.333 63.7333 129.333C63.5999 129.333 63.3333 126.667 63.3333 123.467C63.3333 119.6 62.3999 116.533 60.7999 114.8C58.6666 112.4 58.5333 111.467 59.7333 108.533C62.9333 101.733 61.3333 93.3334 57.0666 93.3334C54.6666 93.3334 54.5333 93.8667 55.1999 97.8667C55.7333 100.8 55.3333 104.267 54.1333 107.333C52.1333 112 52.2666 112.4 55.3333 117.2C57.8666 120.933 58.5333 123.2 57.8666 126.4C57.3333 128.8 57.5999 131.467 58.2666 132.267C59.0666 133.2 60.3999 136.267 61.3333 139.067C62.6666 143.467 62.6666 145.333 60.6666 151.467C57.8666 160.667 53.8666 163.733 48.1333 161.333C45.8666 160.4 42.3999 160.133 40.1333 160.667C36.5333 161.467 35.1999 160.8 28.7999 154.667C24.6666 150.8 21.0666 146.4 20.5333 144.8C20.1333 143.333 17.9999 140.133 15.9999 138C12.9333 134.667 12.1333 132.4 11.3333 124.667C9.86659 108.667 10.1333 107.067 15.1999 100.133C18.3999 95.8667 19.9999 92.1334 19.9999 89.3334C19.9999 86.1334 21.4666 83.7334 25.9999 78.9334C29.3333 75.6 31.9999 71.7334 31.9999 70.4C31.9999 66.9334 37.0666 62.9334 42.6666 62C47.4666 61.2 47.5999 60.9334 47.5999 55.7334C47.5999 50 50.2666 46.6667 54.9333 46.6667C56.1333 46.6667 57.9999 45.3334 58.7999 43.6C61.7333 38 65.8666 34.6667 70.9333 33.8667C73.7333 33.3334 75.9999 32.2667 75.9999 31.2C75.9999 27.7334 80.1332 25.3333 85.9999 25.3333C90.7999 25.3333 92.3999 24.6667 94.1332 22C96.5332 18.2667 103.2 17.4667 108.267 20.1333ZM114.533 103.6C117.067 105.333 118.267 105.467 120.133 104.267C123.6 102 125.867 102.267 129.733 105.333C131.6 106.8 135.067 108 137.733 108C143.067 108 145.333 110.133 146.533 116.4C147.333 119.867 148.133 120.8 151.333 121.067C156.133 121.6 158.667 123.6 158.667 126.667C158.667 127.867 159.867 130 161.467 131.467C166 135.467 166.8 138.133 165.067 142C163.867 144.8 163.867 146.133 165.2 148.4C166.8 150.933 166.667 151.467 163.2 154.267C159.067 157.467 157.2 159.2 153.067 164C150.933 166.267 149.467 166.8 146.4 166.133C144.133 165.733 140.933 166.133 138.667 167.333C133.067 170.267 102.667 171.333 99.1999 168.667C97.8666 167.6 94.3999 166.667 91.7332 166.667C88.5332 166.667 85.5999 165.6 83.0666 163.467C80.9332 161.733 77.7332 160 75.9999 159.733C71.1999 159.067 67.0666 150.4 69.1999 145.733C70.5333 142.933 70.3999 141.867 68.3999 139.733C65.4666 136.4 67.0666 133.467 73.7332 130.267C77.7332 128.4 78.6666 127.2 78.6666 124C78.6666 119.733 82.6666 114.667 85.9999 114.667C87.0666 114.667 87.9999 113.733 87.9999 112.667C87.9999 109.333 93.0666 105.333 97.1999 105.333C99.3332 105.333 102.8 104.4 104.8 103.333C109.733 100.8 110.667 100.8 114.533 103.6Z" fill="#FF7DAE"/>
<path d="M112 118.267C105.6 119.6 101.333 123.733 101.333 128.8C101.333 133.333 103.2 136.133 109.333 140.267L112.667 142.4L108.933 143.867C104.267 145.733 97.7332 145.733 96.6665 144C95.3332 141.867 90.6665 142.4 90.6665 144.667C90.6665 147.333 96.3998 150.933 101.467 151.333C104.533 151.6 106.133 152.667 107.6 155.6C111.6 164.133 121.6 163.6 125.333 154.667C126.533 151.867 127.867 150.667 130 150.667C134 150.667 141.333 144.533 141.333 141.2C141.333 137.733 138.4 138 134.667 142C131.2 145.6 128.8 146 123.333 144L119.733 142.667L125.2 137.333C131.6 131.067 132.4 126 127.733 121.733C124.533 118.667 117.467 117.2 112 118.267ZM122.533 122.533C125.067 124.133 123.333 128 120.267 128C117.2 128 114.133 124.667 115.333 122.667C116.4 121.067 120 120.933 122.533 122.533ZM119.2 132.533C121.6 133.333 121.6 133.467 119.333 136C116.133 139.467 114.933 139.333 110.4 135.067C106.267 131.2 105.867 129.333 108.267 126.933C109.467 125.733 110.667 126 113.2 128.533C115.2 130.133 117.733 132 119.2 132.533ZM119.2 147.333C121.333 148.933 121.6 149.867 120.267 152.667C119.333 154.667 117.6 156 116 156C114.4 156 112.667 154.667 111.733 152.667C110.4 149.867 110.667 148.933 112.8 147.333C114.133 146.267 115.6 145.467 116 145.467C116.4 145.467 117.867 146.267 119.2 147.333Z" fill="#FF7DAE"/>
</svg>
